<mxfile host="app.diagrams.net" modified="2023-12-26T09:46:34.537Z" agent="Mozilla/5.0 (Windows NT 10.0; Win64; x64) AppleWebKit/537.36 (KHTML, like Gecko) Chrome/120.0.0.0 Safari/537.36" version="22.1.11" etag="mrUOATzkO29iQ9or6gsV" type="github">
  <diagram name="第 1 页" id="3kOGjP6sdIA4_HpscBJH">
    <mxGraphModel>
      <root>
        <mxCell id="0" />
        <mxCell id="1" parent="0" />
      </root>
    </mxGraphModel>
  </diagram>
</mxfile>
